<mxfile host="app.diagrams.net" modified="2024-04-09T08:58:57.865Z" agent="Mozilla/5.0 (Windows NT 10.0; Win64; x64) AppleWebKit/537.36 (KHTML, like Gecko) Chrome/123.0.0.0 Safari/537.36" etag="Ft92HTYifXUmaZuoaJwB" version="24.0.7" type="github">
  <diagram name="第 1 页" id="_ezP6FdAih6US3dKR02p">
    <mxGraphModel dx="1290" dy="626" grid="0" gridSize="10" guides="1" tooltips="1" connect="1" arrows="1" fold="1" page="0" pageScale="1" pageWidth="827" pageHeight="1169" math="0" shadow="0">
      <root>
        <mxCell id="0" />
        <mxCell id="1" parent="0" />
      </root>
    </mxGraphModel>
  </diagram>
</mxfile>
